HIERARCHY
ROOT Hips
{
	OFFSET 0.00000 0.00000 0.00000
	CHANNELS 6 Xposition Yposition Zposition Yrotation Zrotation Xrotation 
	JOINT Lumbar
	{
		OFFSET 0 0 0
		CHANNELS 3 Zrotation Xrotation Yrotation
		JOINT Neck
		{
			OFFSET 0.00 0.2701 0.00
			CHANNELS 3 Zrotation Xrotation Yrotation
			End Site
			{
				OFFSET 0.00 0.1379 0.00
			}
		}
		JOINT RightShoulder
		{
			OFFSET 0.0119 0.2289 0.1181
			CHANNELS 3 Zrotation Xrotation Yrotation
			JOINT RightElbow
			{
				OFFSET 0.00 -0.1475 0.00
				CHANNELS 2 Zrotation Yrotation
				JOINT RightWrist
				{
					OFFSET 0.00 -0.1605 0.00
					CHANNELS 2 Zrotation Xrotation
					End Site
					{
						OFFSET 0.0040 -0.1068 0.0006
					}
				}
			}
		}
		JOINT LeftShoulder
		{
			OFFSET 0.0119 0.2289 -0.1181
			CHANNELS 3 Zrotation Xrotation Yrotation
			JOINT LeftElbow
			{
				OFFSET 0.00 -0.1475 0.00
				CHANNELS 2 Zrotation Yrotation
				JOINT LeftWrist
				{
					OFFSET 0.00 -0.1605 0.00
					CHANNELS 2 Zrotation Xrotation
					End Site
					{
						OFFSET 0.0040 -0.1068 -0.0006
					}
				}
			}
		}
	}
	JOINT RightHip
	{
		OFFSET 0.0316 -0.0424 0.0458
		CHANNELS 3 Zrotation Xrotation Yrotation
		JOINT RightKnee
		{
			OFFSET 0.00 -0.2438 0.00
			CHANNELS 1 Zrotation
			JOINT RightAnkle
			{
				OFFSET 0.00 -0.2449 0.00
				CHANNELS 3 Zrotation Xrotation Yrotation
				End Site
				{
					OFFSET 0.1237 -0.0542 0.0051
				}
			}
		}
	}
	JOINT LeftHip
	{
		OFFSET 0.0316 -0.0424 -0.0458
		CHANNELS 3 Zrotation Xrotation Yrotation
		JOINT LeftKnee
		{
			OFFSET 0.00 -0.2438 0.00
			CHANNELS 1 Zrotation
			JOINT LeftAnkle
			{
				OFFSET 0.00 -0.2449 0.00
				CHANNELS 3 Zrotation Xrotation Yrotation
				End Site
				{
					OFFSET 0.1237 -0.0542 -0.0051
				}
			}
		}
	}
}
MOTION
Frames: 11
Frame Time: 0.02
-0.00116 -0.00076 0.00288 -18.56863 -15.16358 6.65035 36.41808 4.59492 -3.50237 -20.68281 -10.79926 -0.41084 -16.63408 -19.00115 9.66989 40.80059 80.67146 -10.16754 -3.41498 -30.75988 18.76549 -12.53396 45.05612 -86.28657 -12.12983 4.92986 26.19327 1.47582 -7.95712 -20.53772 -8.20283 -4.53597 -3.10263 31.14024 10.18946 1.75593 -29.33675 -11.67672 4.40817 3.28037
-0.00075 -0.0009 0.00186 -18.25868 -15.23797 6.41146 36.62642 4.59545 -3.79014 -20.59875 -10.82821 -0.41143 -16.9685 -18.9753 9.43332 40.99481 80.6688 -10.12838 -3.41199 -29.75636 19.16975 -12.96131 46.49004 -86.16058 -12.17027 4.97684 26.32386 1.54458 -8.09304 -20.59082 -8.18715 -4.55249 -3.11252 31.20849 10.18507 1.77533 -29.0913 -11.55488 4.43981 3.28827
-0.00034 -0.00105 0.00085 -17.94941 -15.31226 6.17317 36.8342 4.5958 -4.0772 -20.51452 -10.85695 -0.41202 -17.30195 -18.94918 9.19742 41.18752 80.66606 -10.0884 -3.40866 -28.75467 19.57287 -13.388 47.91948 -86.03391 -12.20949 5.02313 26.45424 1.61299 -8.22894 -20.64374 -8.17153 -4.56894 -3.12238 31.27681 10.18061 1.7945 -28.84666 -11.43333 4.47134 3.29613
7e-05 -0.0012 -0.00016 -17.64036 -15.38644 5.93499 37.04192 4.5963 -4.36412 -20.43065 -10.88581 -0.41261 -17.63534 -18.92336 8.96155 41.38098 80.66338 -10.04922 -3.40563 -27.75399 19.97591 -13.81414 49.34902 -85.9081 -12.24966 5.06987 26.58447 1.68152 -8.36452 -20.69668 -8.15589 -4.58541 -3.13224 31.34491 10.17622 1.81379 -28.60198 -11.31185 4.50288 3.304
0.00047 -0.00134 -0.00117 -17.33078 -15.46067 5.69626 37.25014 4.59704 -4.65166 -20.34709 -10.91489 -0.4132 -17.96973 -18.89793 8.72508 41.57634 80.66086 -10.01117 -3.40308 -26.75207 20.38002 -14.24066 50.78294 -85.78347 -12.29138 5.1175 26.71483 1.75043 -8.49997 -20.74982 -8.1402 -4.60193 -3.14214 31.4128 10.17192 1.83342 -28.35645 -11.19012 4.53455 3.31192
0.00088 -0.00149 -0.00219 -17.02222 -15.53508 5.45888 37.45694 4.5966 -4.93767 -20.26149 -10.94288 -0.4138 -18.3012 -18.87038 8.4904 41.76351 80.65768 -9.96711 -3.39811 -25.75098 20.78101 -14.66768 52.20282 -85.65258 -12.32532 5.16098 26.84524 1.81779 -8.63679 -20.80228 -8.12474 -4.61825 -3.15192 31.48199 10.16714 1.85165 -28.11369 -11.06896 4.56579 3.31965
0.00129 -0.00164 -0.0032 -16.71184 -15.60905 5.21908 37.66645 4.59851 -5.22651 -20.18009 -10.97313 -0.41439 -18.63803 -18.84712 8.25229 41.96677 80.65572 -9.93528 -3.39801 -24.74906 21.1879 -15.09327 53.6496 -85.53416 -12.37504 5.21276 26.97544 1.88821 -8.77072 -20.85604 -8.10881 -4.63496 -3.16193 31.54856 10.16332 1.87256 -27.86565 -10.94678 4.59783 3.32774
0.0017 -0.00178 -0.00421 -16.40333 -15.68341 4.98147 37.87334 4.59829 -5.5126 -20.0948 -11.00115 -0.41498 -18.9702 -18.81991 8.0175 42.15554 80.65286 -9.89204 -3.39343 -23.74839 21.58924 -15.52008 55.07118 -85.40476 -12.40992 5.25686 27.10577 1.95581 -8.90727 -20.90858 -8.09332 -4.65131 -3.17172 31.61743 10.15862 1.89119 -27.62242 -10.82554 4.62916 3.33552
0.0021 -0.00192 -0.00523 -16.09617 -15.75838 4.74658 38.07758 4.5953 -5.79603 -20.00471 -11.02702 -0.41557 -19.29569 -18.78777 7.78604 42.32515 80.64796 -9.83517 -3.38325 -22.7467 21.98443 -15.94905 56.46412 -85.25959 -12.42762 5.29163 27.23658 2.01994 -9.04737 -20.95973 -8.07835 -4.66725 -3.18129 31.68968 10.15284 1.90626 -27.38522 -10.70538 4.65954 3.34286
0.00253 -0.00209 -0.00622 -15.77842 -15.83025 4.49616 38.29878 4.60774 -6.09688 -19.9421 -11.06698 -0.41617 -19.6567 -18.78367 7.53323 42.60065 80.65197 -9.85765 -3.40494 -21.74316 22.41692 -16.36766 58.02841 -85.19809 -12.54705 5.38025 27.36562 2.10398 -9.16811 -21.01922 -8.06034 -4.68562 -3.19225 31.74419 10.15324 1.93949 -27.1138 -10.5788 4.69515 3.35252
0.00289 -0.00219 -0.00728 -15.48489 -15.90835 4.27846 38.48306 4.58797 -6.35961 -19.82164 -11.0761 -0.41675 -19.94457 -18.72069 7.3269 42.6556 80.63902 -9.71223 -3.35965 -20.74867 22.76947 -16.80671 59.22689 -84.96472 -12.45011 5.35518 27.49772 2.14605 -9.32894 -21.0609 -8.04877 -4.69879 -3.20022 31.83498 10.14061 1.93589 -26.9143 -10.46593 4.71988 3.35741
